<?xml version="1.0" standalone="no"?>
<!DOCTYPE svg PUBLIC "-//W3C//DTD SVG 20010904//EN"
 "http://www.w3.org/TR/2001/REC-SVG-20010904/DTD/svg10.dtd">
<svg version="1.0" xmlns="http://www.w3.org/2000/svg"
 width="460.000000pt" height="271.000000pt" viewBox="0 0 460.000000 271.000000"
 preserveAspectRatio="xMidYMid meet">

<g transform="translate(0.000000,271.000000) scale(0.100000,-0.100000)"
fill="#000000" stroke="none">
<path d="M1323 2698 c-45 -12 -73 -51 -73 -103 0 -53 26 -87 88 -119 29 -15
97 -75 173 -153 l126 -128 7 -214 c3 -118 6 -371 6 -563 0 -341 0 -348 20
-348 11 0 20 6 20 13 0 6 0 256 0 554 0 459 -2 548 -15 578 -23 58 -249 282
-315 313 -47 23 -55 31 -58 58 -4 37 19 64 52 64 31 0 56 -30 56 -66 0 -35 20
-56 167 -172 183 -144 239 -141 440 27 113 93 128 110 134 143 7 48 25 68 59
68 33 0 53 -21 53 -57 0 -31 -34 -63 -67 -63 -31 0 -290 -270 -311 -324 -14
-36 -15 -106 -13 -543 3 -489 4 -502 24 -529 48 -65 117 -84 182 -50 59 30 69
69 74 276 5 204 19 267 79 362 147 230 463 274 648 90 125 -125 162 -319 91
-471 -98 -206 -325 -282 -496 -165 -95 64 -146 161 -146 279 -1 92 28 167 84
222 177 173 447 67 450 -176 2 -128 -73 -223 -193 -246 -114 -21 -228 84 -229
209 0 94 55 168 141 187 91 21 167 -34 190 -135 9 -42 17 -56 30 -56 23 0 28
18 20 66 -22 115 -101 184 -213 184 -115 0 -218 -110 -219 -234 -2 -112 55
-210 145 -252 121 -56 269 -8 336 109 42 73 54 140 40 218 -14 79 -40 129 -91
180 -59 59 -118 83 -209 83 -126 1 -228 -60 -288 -172 -112 -210 -15 -469 205
-552 76 -29 203 -25 277 8 156 70 246 220 246 411 -1 197 -90 345 -259 429
-74 36 -77 37 -190 37 -97 0 -125 -4 -173 -23 -164 -66 -291 -233 -318 -420
-5 -37 -10 -131 -10 -209 0 -137 -1 -142 -26 -172 -46 -55 -123 -36 -144 37
-14 51 -14 961 1 999 17 45 247 272 299 295 60 26 80 52 80 110 0 66 -40 113
-97 113 -58 0 -90 -26 -108 -88 -15 -48 -24 -59 -121 -137 -132 -106 -137
-109 -202 -110 -64 0 -75 5 -172 83 -115 92 -140 118 -150 158 -20 72 -71 105
-137 87z"/>
<path d="M558 2570 c-182 -33 -288 -105 -345 -235 -13 -30 -17 -67 -18 -145 0
-96 2 -109 28 -159 63 -120 159 -194 432 -336 94 -48 188 -100 210 -115 155
-108 178 -242 62 -355 -65 -64 -127 -85 -243 -85 -107 0 -194 27 -246 77 -59
58 -71 151 -27 214 19 28 84 59 120 59 18 0 20 4 14 28 -10 41 -43 89 -79 117
-116 88 -281 65 -351 -49 -27 -44 -30 -58 -30 -130 0 -70 4 -88 29 -133 35
-63 74 -101 150 -147 118 -71 274 -108 451 -107 257 2 469 108 550 276 27 55
30 69 30 170 0 103 -2 113 -30 163 -58 105 -136 163 -445 327 -186 99 -229
127 -282 182 -150 155 3 355 240 313 156 -27 248 -126 302 -325 16 -56 19 -60
49 -63 31 -3 32 -2 27 30 -3 18 -10 114 -16 213 -13 218 -15 225 -40 225 -11
0 -20 -6 -20 -13 0 -8 -9 -22 -20 -32 -20 -18 -24 -18 -136 9 -124 30 -282 42
-366 26z"/>
<path d="M3160 2063 c-23 -9 -29 -23 -20 -52 17 -59 365 -907 378 -923 12 -14
31 -18 92 -18 61 0 80 4 92 18 8 9 45 94 83 187 37 94 71 173 75 178 3 4 37
-72 76 -168 38 -97 77 -184 87 -195 15 -16 31 -20 90 -20 43 0 80 5 89 13 25
18 400 935 393 958 -6 17 -18 19 -134 19 l-129 0 -19 -47 c-11 -27 -58 -150
-104 -275 -46 -126 -86 -228 -89 -228 -8 1 -130 263 -130 279 0 8 21 65 46
127 26 62 44 120 41 129 -5 12 -29 15 -140 15 -133 0 -134 0 -145 -25 -6 -14
-48 -138 -92 -277 -44 -138 -82 -254 -85 -256 -2 -2 -44 119 -93 270 -75 230
-93 275 -113 285 -24 13 -219 17 -249 6z"/>
<path d="M92 1024 l-22 -15 0 -379 0 -379 22 -15 c17 -12 50 -16 138 -16 169
0 160 -13 160 221 l0 189 -75 0 -75 0 0 -30 c0 -29 2 -30 45 -30 l45 0 0 -145
0 -145 -100 0 -100 0 0 350 0 350 100 0 100 0 0 -95 0 -95 30 0 30 0 0 109 c0
142 1 141 -160 141 -88 0 -121 -4 -138 -16z"/>
<path d="M520 475 l0 -255 30 0 30 0 0 214 c0 170 3 215 13 219 8 3 39 8 70
12 l57 7 0 -56 c0 -56 0 -56 30 -56 l30 0 0 65 c0 52 -4 69 -20 85 -23 23 -26
24 -108 6 -53 -11 -65 -11 -69 1 -3 7 -18 13 -34 13 l-29 0 0 -255z"/>
<path d="M894 716 c-18 -14 -19 -28 -19 -241 0 -272 -9 -255 135 -255 126 0
140 9 140 91 0 59 0 59 -30 59 -29 0 -30 -2 -30 -45 l0 -45 -75 0 -75 0 0 90
0 90 93 0 c59 0 97 4 105 12 8 8 12 49 12 118 0 139 -1 140 -136 140 -71 0
-106 -4 -120 -14z m196 -121 l0 -75 -75 0 -75 0 0 75 0 75 75 0 75 0 0 -75z"/>
<path d="M1290 710 c-19 -19 -20 -33 -20 -235 0 -267 -6 -255 138 -255 128 0
142 9 142 91 0 59 0 59 -30 59 -29 0 -30 -2 -30 -45 l0 -45 -80 0 -80 0 0 90
0 90 98 0 c63 0 102 4 110 12 8 8 12 49 12 119 0 137 -2 139 -142 139 -85 0
-101 -3 -118 -20z m200 -115 l0 -75 -80 0 -80 0 0 75 0 75 80 0 80 0 0 -75z"/>
<path d="M1670 475 l0 -255 30 0 30 0 0 214 0 214 33 5 c17 3 53 9 80 13 l47
6 0 -226 0 -226 35 0 35 0 0 235 c0 222 -1 236 -20 255 -23 23 -30 24 -128 6
-61 -10 -75 -10 -79 1 -3 7 -18 13 -34 13 l-29 0 0 -255z"/>
<path d="M2050 727 c0 -3 28 -117 61 -254 l62 -248 -21 -81 c-12 -44 -24 -88
-28 -97 -5 -14 0 -17 29 -17 l34 0 71 288 c39 158 78 315 86 350 l14 62 -32 0
-32 0 -38 -182 c-21 -100 -42 -193 -46 -207 -8 -28 -9 -23 -68 254 l-27 130
-33 3 c-17 2 -32 1 -32 -1z"/>
</g>
</svg>
